# xmcd
#
# Track frame offsets:
# 183
# 15000
# 26278
# 40625
# 56080
# 69703
# 82623
# 94413
# 114090
# 126905
# 136928
# 148605
# 158085
# 172103
#
# Disc length: 2501 seconds
#
#
# Revision: 0
# Processed by: cddbd v1.5.1PL0 Copyright (c) Steve Scherf et al.
# Submitted via: FreeRIP 2.941 
#
DISCID=a809c30e
DTITLE=Boxcar Willie - Heartbeakin' Hillbilly Songs
DYEAR=1993
DGENRE=Country
TTITLE0=Only In My Mind
TTITLE1=Lonesome Old Town
TTITLE2=Long Black Veil Around Her Heart
TTITLE3=Forty-Nine Nights
TTITLE4=Why Do You Want Me?
TTITLE5=Long Black Limousine
TTITLE6=I Don't Feel Like Doing Anything
TTITLE7=Danny Boy
TTITLE8=Reflections Of An Old Man
TTITLE9=Cody, Wyoming
TTITLE10=Nothing Left But Memories
TTITLE11=Long, Long Train
TTITLE12=If I Didn't Love You
TTITLE13=Old King Cole
EXTD=
EXTT0=
EXTT1=
EXTT2=
EXTT3=
EXTT4=
EXTT5=
EXTT6=
EXTT7=
EXTT8=
EXTT9=
EXTT10=
EXTT11=
EXTT12=
EXTT13=
PLAYORDER=
